<?xml version="1.0" standalone="no"?>
<!DOCTYPE svg PUBLIC "-//W3C//DTD SVG 20010904//EN"
 "http://www.w3.org/TR/2001/REC-SVG-20010904/DTD/svg10.dtd">
<svg version="1.0" xmlns="http://www.w3.org/2000/svg"
 width="256.000000pt" height="256.000000pt" viewBox="0 0 256.000000 256.000000"
 preserveAspectRatio="xMidYMid meet">

<g transform="translate(0.000000,256.000000) scale(0.100000,-0.100000)"
fill="#000000" stroke="none">
<path d="M572 2341 c-94 -23 -221 -87 -297 -148 -264 -214 -346 -580 -208
-928 91 -230 250 -454 511 -719 180 -183 358 -336 440 -379 176 -93 398 -86
559 16 66 42 244 199 383 339 299 298 490 581 566 833 34 117 43 295 21 402
-34 156 -98 274 -212 388 -279 279 -702 285 -977 14 l-78 -76 -77 76 c-172
169 -408 236 -631 182z m251 -321 c171 -53 279 -198 296 -395 6 -71 13 -103
28 -123 71 -96 195 -96 266 0 15 19 22 52 28 120 9 105 26 158 76 235 65 99
213 183 323 183 63 0 164 -37 227 -83 64 -48 98 -92 140 -182 25 -54 28 -71
28 -170 0 -120 -17 -188 -78 -310 -103 -208 -333 -479 -621 -733 -134 -118
-177 -142 -256 -142 -79 0 -122 24 -256 142 -382 337 -629 665 -689 916 -21
87 -16 214 11 282 48 122 145 217 263 257 82 28 131 29 214 3z"/>
</g>
</svg>
