<?xml version="1.0" standalone="no"?>
<!DOCTYPE svg PUBLIC "-//W3C//DTD SVG 20010904//EN"
 "http://www.w3.org/TR/2001/REC-SVG-20010904/DTD/svg10.dtd">
<svg version="1.0" xmlns="http://www.w3.org/2000/svg"
 width="256.000000pt" height="256.000000pt" viewBox="0 0 256.000000 256.000000"
 preserveAspectRatio="xMidYMid meet">

<g transform="translate(0.000000,256.000000) scale(0.100000,-0.100000)"
fill="#000000" stroke="none">
<path d="M1175 2527 c-52 -18 -102 -44 -144 -76 -65 -49 -98 -115 -172 -343
l-70 -217 -252 -3 c-282 -3 -300 -7 -394 -84 -164 -135 -187 -388 -49 -551 15
-18 108 -92 207 -164 101 -73 179 -137 179 -146 0 -9 -30 -106 -66 -217 -60
-180 -67 -209 -67 -281 0 -116 28 -181 112 -266 86 -86 150 -113 271 -113 119
0 163 20 372 175 l178 130 184 -134 c118 -86 204 -142 238 -153 75 -27 195
-24 270 5 157 61 265 249 239 412 -5 31 -37 140 -70 241 -34 101 -61 192 -61
200 0 10 75 72 180 148 99 73 192 146 206 163 42 50 83 147 90 213 17 160 -76
323 -223 392 -57 27 -60 27 -310 30 l-252 3 -70 217 c-92 284 -128 338 -276
403 -61 28 -190 35 -250 16z m150 -327 c9 -10 55 -137 101 -281 88 -278 102
-306 171 -335 25 -11 98 -14 318 -14 272 0 286 -1 305 -20 25 -25 26 -64 2
-87 -9 -10 -116 -90 -236 -177 -125 -91 -226 -173 -237 -190 -33 -54 -25 -103
66 -384 91 -283 93 -300 40 -324 -18 -8 -32 -8 -47 -1 -13 6 -121 83 -241 171
-224 165 -253 181 -320 168 -22 -4 -114 -65 -253 -167 -120 -89 -229 -166
-241 -172 -16 -7 -30 -7 -48 1 -52 24 -50 41 41 324 90 279 98 326 67 381 -12
20 -103 94 -248 200 -126 92 -233 173 -237 180 -14 22 -8 57 12 77 19 19 33
20 305 20 220 0 293 3 318 14 68 29 82 56 171 335 47 145 92 271 102 282 22
25 66 24 89 -1z"/>
</g>
</svg>
